<?xml version="1.0" standalone="no"?>
<!DOCTYPE svg PUBLIC "-//W3C//DTD SVG 20010904//EN"
 "http://www.w3.org/TR/2001/REC-SVG-20010904/DTD/svg10.dtd">
<svg version="1.0" xmlns="http://www.w3.org/2000/svg"
 width="643.000000pt" height="201.000000pt" viewBox="0 0 643.000000 201.000000"
 preserveAspectRatio="xMidYMid meet">

<g transform="translate(0.000000,201.000000) scale(0.100000,-0.100000)"
fill="#000000" stroke="none">
<path d="M646 1909 c-103 -10 -206 -34 -256 -59 -83 -42 -158 -139 -197 -255
-88 -258 15 -603 311 -1035 143 -209 358 -470 387 -470 33 0 327 369 450 564
273 435 342 754 219 1011 -35 73 -108 153 -166 183 -121 62 -455 89 -748 61z
m230 -515 c-12 -64 -13 -91 -5 -101 8 -9 38 -13 95 -13 46 0 84 -2 84 -5 0
-10 -153 -275 -157 -272 -2 3 3 46 12 97 12 69 13 95 5 106 -8 9 -40 14 -95
16 l-83 3 76 137 c42 75 78 133 80 128 2 -4 -4 -48 -12 -96z"/>
<path d="M1827 1470 c-70 -13 -72 -19 -75 -220 l-3 -180 30 -30 c29 -30 30
-30 148 -30 131 0 163 11 163 55 0 24 0 24 -122 27 l-123 3 0 145 0 145 123 3
c121 3 122 3 122 27 0 14 -11 32 -26 44 -23 18 -40 21 -113 20 -47 -1 -103 -5
-124 -9z"/>
<path d="M2257 1471 c-70 -15 -72 -20 -75 -221 l-3 -180 30 -30 29 -30 127 0
c71 0 135 5 147 11 37 20 48 69 48 219 0 153 -11 199 -52 221 -27 15 -197 21
-251 10z m207 -97 c12 -31 7 -249 -7 -268 -10 -14 -26 -16 -97 -14 l-85 3 -3
134 c-1 74 0 141 2 148 4 9 31 13 95 13 72 0 90 -3 95 -16z"/>
<path d="M2670 1246 l0 -238 133 4 c128 3 135 4 170 31 27 20 41 41 52 79 29
98 14 251 -28 297 -37 40 -84 53 -209 59 l-118 5 0 -237z m247 120 c27 -24 28
-27 28 -126 0 -99 -1 -102 -28 -126 -23 -20 -39 -24 -93 -24 l-64 0 0 150 0
150 64 0 c54 0 70 -4 93 -24z"/>
<path d="M3140 1245 l0 -235 160 0 160 0 0 40 0 40 -110 0 -110 0 0 60 0 60
100 0 100 0 0 40 0 40 -100 0 -100 0 0 50 0 50 110 0 110 0 0 45 0 45 -160 0
-160 0 0 -235z"/>
<path d="M3560 1245 l0 -235 45 0 45 0 0 80 0 80 45 0 45 0 40 -80 40 -80 45
0 c25 0 45 5 45 10 0 6 -16 43 -36 82 -30 60 -34 74 -22 82 37 29 48 60 48
143 0 132 -31 152 -232 153 l-108 0 0 -235z m245 80 l0 -60 -77 -3 -78 -3 0
66 0 66 78 -3 77 -3 0 -60z"/>
<path d="M4170 1245 l0 -235 45 0 44 0 3 148 3 147 58 -118 57 -118 41 3 41 3
52 112 51 112 3 -144 3 -145 49 0 50 0 0 235 0 235 -54 0 c-31 0 -57 -5 -63
-12 -5 -7 -36 -70 -69 -140 -32 -71 -61 -128 -65 -128 -3 0 -35 63 -72 140
l-66 140 -55 0 -56 0 0 -235z"/>
<path d="M4781 1293 c0 -205 8 -250 49 -270 16 -8 68 -13 142 -13 109 0 119 2
145 24 l28 24 3 211 3 211 -45 0 -46 0 0 -182 c0 -101 -4 -189 -9 -196 -5 -9
-30 -12 -87 -10 l-79 3 -3 193 -2 192 -50 0 -50 0 1 -187z"/>
<path d="M5326 1470 c-60 -11 -76 -38 -76 -125 0 -100 10 -111 130 -139 l95
-22 0 -44 0 -45 -112 -3 -113 -3 0 -29 c0 -42 23 -50 150 -50 110 0 112 0 141
29 27 27 29 35 29 100 0 97 -16 115 -135 144 l-90 22 -3 43 -3 42 110 0 111 0
0 26 c0 45 -35 63 -120 63 -41 -1 -93 -5 -114 -9z"/>
<path d="M5670 1245 l0 -235 45 0 45 0 0 235 0 235 -45 0 -45 0 0 -235z"/>
<path d="M5956 1470 c-71 -13 -76 -29 -76 -221 0 -102 4 -178 11 -192 17 -38
51 -47 172 -47 123 1 147 9 147 53 l0 26 -117 3 -118 3 -3 148 -3 147 121 0
120 0 0 29 c0 47 -30 61 -130 60 -47 -1 -103 -5 -124 -9z"/>
<path d="M1750 858 c0 -39 45 -257 56 -275 11 -17 24 -23 49 -23 45 0 49 9 78
178 17 96 20 132 11 132 -14 0 -16 -10 -39 -145 -9 -55 -20 -110 -25 -122 -10
-23 -44 -31 -55 -14 -3 6 -14 61 -25 123 -11 62 -22 123 -25 136 -6 23 -25 31
-25 10z"/>
<path d="M2030 714 c0 -120 3 -155 13 -152 9 4 13 46 15 156 2 131 0 152 -13
152 -13 0 -15 -23 -15 -156z"/>
<path d="M2160 715 c0 -97 4 -155 10 -155 6 0 10 53 10 139 0 201 18 200 65
-1 15 -64 33 -122 40 -128 8 -6 24 -10 37 -8 23 3 23 5 26 156 2 131 0 152
-13 152 -13 0 -15 -21 -15 -140 0 -110 -3 -140 -13 -140 -9 0 -23 41 -42 123
-34 150 -38 157 -75 157 l-30 0 0 -155z"/>
<path d="M2410 860 c0 -5 16 -10 35 -10 l34 0 3 -142 c2 -100 7 -143 15 -145
9 -3 13 31 15 139 l3 143 38 3 c20 2 35 7 32 13 -8 12 -175 12 -175 -1z"/>
<path d="M2660 843 c-19 -24 -20 -37 -18 -151 2 -87 7 -127 15 -129 8 -3 13
15 15 59 l3 63 60 0 60 0 3 -62 c2 -35 7 -63 12 -63 6 0 10 60 10 145 0 165 0
165 -89 165 -42 0 -53 -4 -71 -27z m128 -5 c7 -7 12 -38 12 -70 l0 -58 -65 0
-65 0 0 60 c0 46 4 61 18 69 24 14 85 14 100 -1z"/>
<path d="M2937 852 c-14 -15 -17 -41 -17 -140 0 -114 1 -122 22 -136 34 -24
111 -21 134 5 23 25 26 98 5 122 -15 18 -81 24 -81 7 0 -5 9 -10 19 -10 41 0
51 -11 51 -56 0 -48 -17 -64 -69 -64 -53 0 -61 19 -61 140 0 120 5 130 67 130
37 0 50 -10 54 -39 2 -14 10 -26 17 -29 19 -6 15 53 -6 71 -26 24 -113 23
-135 -1z"/>
<path d="M3197 852 c-19 -20 -23 -83 -7 -112 7 -13 5 -27 -6 -49 -20 -40 -11
-95 19 -116 26 -18 97 -20 120 -2 24 17 35 77 14 77 -10 0 -17 -11 -19 -27 -4
-34 -44 -52 -85 -37 -24 8 -28 16 -31 54 -4 50 13 70 60 70 15 0 28 5 28 10 0
6 -13 10 -29 10 -51 0 -81 69 -45 105 24 24 86 16 99 -12 12 -28 25 -30 25 -4
0 33 -28 51 -79 51 -34 0 -53 -5 -64 -18z"/>
<path d="M3580 715 c0 -97 4 -155 10 -155 6 0 10 58 10 155 0 97 -4 155 -10
155 -6 0 -10 -58 -10 -155z"/>
<path d="M3707 863 c-4 -3 -7 -73 -7 -155 0 -115 3 -149 13 -146 8 3 13 45 17
146 4 102 8 139 16 134 7 -4 24 -63 40 -131 16 -68 34 -130 42 -137 7 -8 24
-14 38 -14 l24 0 0 155 c0 97 -4 155 -10 155 -6 0 -10 -53 -10 -140 0 -116 -2
-140 -15 -140 -15 0 -18 10 -56 165 -12 50 -26 96 -32 103 -10 13 -49 17 -60
5z"/>
<path d="M3996 848 c-18 -26 -21 -80 -6 -108 6 -11 29 -24 53 -30 77 -20 87
-27 87 -62 0 -45 -11 -58 -52 -64 -42 -7 -78 9 -78 36 0 11 -4 20 -10 20 -5 0
-10 -11 -10 -24 0 -33 35 -56 85 -56 62 0 85 21 85 78 0 26 -4 52 -8 58 -4 6
-34 20 -67 30 l-60 19 -3 44 c-4 48 6 61 50 61 41 0 58 -10 58 -36 0 -15 6
-24 15 -24 19 0 19 30 -1 58 -12 18 -25 22 -69 22 -44 0 -57 -4 -69 -22z"/>
<path d="M4200 861 c0 -6 17 -11 38 -13 l37 -3 3 -142 c1 -81 7 -143 12 -143
5 0 11 62 12 143 l3 142 38 3 c73 6 35 22 -53 22 -49 0 -90 -4 -90 -9z"/>
<path d="M4457 852 c-14 -15 -17 -42 -17 -155 0 -85 4 -137 10 -137 6 0 10 50
10 129 0 145 6 161 64 161 44 0 56 -16 56 -72 0 -43 -3 -50 -26 -58 -14 -6
-36 -10 -50 -10 -39 0 -28 -18 14 -22 36 -3 37 -5 57 -65 10 -35 23 -63 28
-63 10 0 1 57 -17 111 -11 31 -10 38 3 46 25 16 22 120 -3 139 -29 21 -109 18
-129 -4z"/>
<path d="M4700 731 c0 -133 1 -141 22 -155 28 -20 108 -21 134 -2 17 13 19 29
22 155 3 123 2 141 -12 141 -14 0 -16 -19 -16 -135 0 -123 -2 -135 -19 -145
-28 -14 -63 -12 -89 6 -21 14 -22 22 -22 145 0 79 -4 129 -10 129 -6 0 -10
-53 -10 -139z"/>
<path d="M4974 857 c-2 -7 -3 -75 -2 -152 2 -100 6 -140 16 -143 9 -3 12 30
12 142 0 123 2 145 15 140 9 -4 24 -50 42 -125 28 -120 46 -148 59 -91 38 164
51 207 67 210 15 3 17 -11 17 -137 0 -87 4 -141 10 -141 6 0 10 58 10 155 l0
155 -31 0 c-35 0 -49 -25 -69 -125 -7 -33 -15 -66 -19 -73 -4 -7 -18 32 -30
85 -13 54 -29 101 -35 105 -18 12 -56 9 -62 -5z"/>
<path d="M5337 852 c-20 -21 -23 -102 -6 -119 9 -9 7 -16 -6 -29 -13 -14 -16
-29 -13 -66 3 -27 10 -54 16 -60 6 -6 34 -13 62 -16 60 -5 90 14 90 60 0 36
-18 37 -22 1 -4 -34 -44 -52 -85 -37 -24 8 -28 16 -31 54 -4 49 13 70 55 70
13 0 23 5 23 10 0 6 -11 10 -24 10 -34 0 -56 25 -56 65 0 39 20 55 70 55 23 0
33 -6 40 -25 11 -29 30 -33 30 -7 0 49 -107 74 -143 34z"/>
<path d="M5567 863 c-4 -3 -7 -73 -7 -155 0 -115 3 -149 13 -146 8 3 13 46 17
148 6 173 15 172 58 -9 16 -68 36 -127 43 -132 8 -5 24 -9 37 -9 22 0 22 1 22
155 0 97 -4 155 -10 155 -6 0 -10 -54 -10 -141 0 -126 -2 -140 -17 -137 -13 2
-24 34 -46 128 -16 69 -34 131 -39 138 -11 13 -50 17 -61 5z"/>
<path d="M5810 861 c0 -6 17 -11 38 -13 l37 -3 3 -142 c1 -81 7 -143 12 -143
5 0 11 62 12 143 l3 142 38 3 c73 6 35 22 -53 22 -49 0 -90 -4 -90 -9z"/>
<path d="M6060 850 c-22 -22 -26 -64 -10 -104 7 -18 21 -28 52 -36 79 -20 88
-26 88 -64 0 -19 -7 -42 -16 -50 -32 -33 -114 -8 -114 35 0 11 -4 17 -10 14
-18 -11 -11 -53 12 -69 29 -20 97 -20 126 0 18 12 22 25 22 70 0 60 1 59 -90
86 -42 12 -45 15 -48 51 -4 48 11 67 52 67 38 0 53 -9 57 -34 6 -29 29 -32 29
-3 0 37 -30 57 -83 57 -34 0 -53 -6 -67 -20z"/>
</g>
</svg>
